# xmcd
#
# Track frame offsets: 
#        150
#        31320
#        45850
#        65132
#        77742
#        95115
#        110422
#        124800
#        140712
#        160517
#        189010
#        198265
#        218127
#        236985
#        251782
#
# Disc length: 3583 seconds
#
# Revision: 1
# Processed by: cddbd v1.5.2PL0 Copyright (c) Steve Scherf et al.
# Submitted via: ExactAudioCopy v0.99pb5
#
DISCID=d20dfd0f
DTITLE=Billy Boy Arnold - Dirty Mother...
DYEAR=2007
DGENRE=Harp Blues/Electric Chicago Blues
TTITLE0=Dirty Mother F...
TTITLE1=Don't Stay Out All Night
TTITLE2=1-2-99
TTITLE3=Riding the El
TTITLE4=Just Got to Know
TTITLE5=Christmas Time
TTITLE6=I Wish You Would
TTITLE7=Ah' W' Baby
TTITLE8=Sweet Miss Bea
TTITLE9=Blue and Lonesome
TTITLE10=Eldorado Cadillac
TTITLE11=Mary Bernice
TTITLE12=It's Great to Be Rich
TTITLE13=Just a Dream
TTITLE14=Catfish
EXTD=YEAR: 1977 ID3G: 0
EXTT0=
EXTT1=
EXTT2=
EXTT3=
EXTT4=
EXTT5=
EXTT6=
EXTT7=
EXTT8=
EXTT9=
EXTT10=
EXTT11=
EXTT12=
EXTT13=
EXTT14=
PLAYORDER=
